# AST/ASF file generated using VICON BodyLanguage
# -----------------------------------------------
:version 1.10
:name VICON
:units
  mass 1.0
  length 0.45
  angle deg
:documentation
   .ast/.asf automatically generated from VICON data using
   VICON BodyBuilder and BodyLanguage model FoxedUp or BRILLIANT.MOD
:root
   order TX TY TZ RX RY RZ
   axis XYZ
   position 0 0 0  
   orientation 0 0 0 
:bonedata
  begin
     id 1 
     name lhipjoint
     direction 0.734343 -0.627749 0.258209 
     length 2.5437 
     axis 0 0 0  XYZ
  end
  begin
     id 2 
     name lfemur
     direction 0.34202 -0.939693 0  
     length 6.7391  
     axis 0 0 20  XYZ
    dof rx ry rz
    limits (-160.0 20.0)
           (-70.0 70.0)
           (-60.0 70.0)
  end
  begin
     id 3 
     name ltibia
     direction 0.34202 -0.939693 0   
     length 7.21536   
     axis 0 0 20   XYZ
    dof rx
    limits (-10.0 170.0)
  end
  begin
     id 4 
     name lfoot
     direction 0.0489572 -0.134509 0.989702   
     length 1.61313   
     axis -90 7.62852e-016 20   XYZ
    dof rx rz
    limits (-45.0 90.0)
           (-70.0 20.0)
  end
  begin
     id 5 
     name ltoes
     direction 1.53451e-011 -4.21692e-011 1   
     length 0.823104   
     axis -90 7.62852e-016 20   XYZ
    dof rx
    limits (-90.0 20.0)
  end
  begin
     id 6 
     name rhipjoint
     direction -0.746398 -0.615468 0.253157   
     length 2.59446  
     axis 0 0 0  XYZ 
  end
  begin
     id 7 
     name rfemur
     direction -0.34202 -0.939693 0   
     length 6.7075   
     axis 0 0 -20   XYZ
    dof rx ry rz
    limits (-160.0 20.0)
           (-70.0 70.0)
           (-70.0 60.0)
  end
  begin
     id 8 
     name rtibia
     direction -0.34202 -0.939693 0   
     length 7.27262   
     axis 0 0 -20   XYZ
    dof rx
    limits (-10.0 170.0)
 end
 begin
     id 9 
     name rfoot
     direction -0.0455203 -0.125066 0.991104   
     length 1.91095  
     axis -90 -7.62852e-016 -20   XYZ
    dof rx rz
    limits (-45.0 90.0)
           (-20.0 70.0)
  end
  begin
     id 10 
     name rtoes
     direction -1.53601e-011 -4.21913e-011 1   
     length 0.969037   
     axis -90 -7.62852e-016 -20   XYZ
    dof rx
    limits (-90.0 20.0)
  end
  begin
     id 11 
     name lowerback
     direction 0.0181546 0.999122 -0.0377542   
     length 1.99916   
     axis 0 0 0   XYZ
    dof rx ry rz
    limits (-20.0 45.0)
           (-30.0 30.0)
           (-30.0 30.0)
  end
  begin
     id 12 
     name upperback
     direction 0.0203486 0.99589 0.0882534   
     length 1.951   
     axis 0 0 0   XYZ
    dof rx ry rz
    limits (-20.0 45.0)
           (-30.0 30.0)
           (-30.0 30.0)
  end
  begin
     id 13 
     name thorax
     direction 0.0131685 0.994241 0.106355   
     length 1.97461   
     axis 0 0 0   XYZ
    dof rx ry rz
    limits (-20.0 45.0)
           (-30.0 30.0)
           (-30.0 30.0)
  end
  begin
     id 14 
     name lowerneck
     direction -0.0281395 0.999325 0.023617   
     length 1.7959   
     axis 0 0 0   XYZ
    dof rx ry rz
    limits (-20.0 45.0)
           (-30.0 30.0)
           (-30.0 30.0)
  end
  begin
     id 15 
     name upperneck
     direction 0.0288721 0.991984 -0.123019   
     length 1.79917   
     axis 0 0 0   XYZ
    dof rx ry rz
    limits (-20.0 45.0)
           (-30.0 30.0)
           (-30.0 30.0)
  end
  begin
     id 16
     name head
     direction 0.0133797 0.998944 -0.0439492  
     length 1.80902  
     axis 0 0 0   XYZ
    dof rx ry rz
    limits (-20.0 45.0)
           (-30.0 30.0)
           (-30.0 30.0)
  end
  begin
     id 17 
     name lclavicle
     direction 0.919195 0.377107 0.113449  
     length 3.17815  
     axis 0 0 0   XYZ
    dof ry rz
    limits (-20.0 10.0)
           (0.0 20.0)
  end
  begin
     id 18 
     name lhumerus
     direction 1 -4.48959e-011 2.13129e-027   
     length 4.84137   
     axis 180 -30 -90   XYZ
    dof rx ry rz
    limits (-60.0 90.0)
           (-90.0 90.0)
           (-90.0 90.0)
  end
  begin
     id 19
     name lradius
     direction 1 -4.48957e-011 -6.30627e-028   
     length 3.2452   
     axis 180 -30 -90   XYZ
    dof rx
    limits (-10.0 170.0)
  end
  begin
     id 20
     name lwrist
     direction 1 -4.4901e-011 9.13299e-027   
     length 1.6226   
     axis -6.84618e-015 90 90   XYZ
    dof ry
    limits (-180.0 0.0)
 end
  begin
     id 21 
     name lhand
     direction 1 -4.48816e-011 1.82293e-026   
     length 0.521221   
     axis -1.16502e-014 90 90   XYZ
    dof rx rz
    limits (-90.0 90.0)
           (-45.0 45.0)
  end
  begin
     id 22 
     name lfingers
     direction 1 -4.49108e-011 3.65687e-026   
     length 0.420221   
     axis -2.33008e-014 90 90   XYZ
    dof rx
    limits (0.0 90.0)
  end
  begin
     id 23
     name lthumb
     direction 0.707107 -6.34943e-011 0.707107   
     length 0.603356   
     axis -90 45 5.69224e-014   XYZ
    dof rx rz
    limits (-45.0 45.0)
           (-45.0 45.0)
  end
  begin
     id 24 
     name rclavicle
     direction -0.90847 0.38596 0.160368   
     length 3.12973  
     axis 0 0 0   XYZ 
    dof ry rz
    limits (-10.0 20.0)
           (-20.0 0.0)
  end
  begin
     id 25 
     name rhumerus
     direction -1 -4.48974e-011 4.47268e-028  
     length 4.72284   
     axis 180 30 90   XYZ
    dof rx ry rz
    limits (-90.0 60.0)
           (-90.0 90.0)
           (-90.0 90.0)
  end
  begin
     id 26 
     name rradius
     direction -1 -4.48969e-011 3.43203e-027   
     length 3.23459   
     axis 180 30 90   XYZ
    dof rx
    limits (-10.0 170.0)
  end
  begin
     id 27 
     name rwrist
     direction -1 -4.48969e-011 9.12911e-027   
     length 1.6173   
     axis -6.84618e-015 -90 -90   XYZ
    dof ry
    limits (-180.0 0.0)
  end
  begin
     id 28
     name rhand
     direction -1 -4.49194e-011 1.83006e-026   
     length 0.307416   
     axis -1.16502e-014 -90 -90   XYZ
    dof rx rz
    limits (-90.0 90.0)
           (-45.0 45.0)
  end
  begin
     id 29
     name rfingers
     direction -1 -4.48423e-011 3.63103e-026   
     length 0.247847   
     axis -2.33008e-014 -90 -90   XYZ
    dof rx
    limits (0.0 90.0)
  end
  begin
     id 30
     name rthumb
     direction -0.707107 -6.34802e-011 0.707107   
     length 0.35586   
     axis -90 -45 -5.69224e-014   XYZ
    dof rx rz
    limits (-45.0 45.0)
           (-45.0 45.0)
  end
:hierarchy
  begin
    root lhipjoint rhipjoint lowerback
    lhipjoint lfemur
    lfemur ltibia
    ltibia lfoot
    lfoot ltoes
    rhipjoint rfemur
    rfemur rtibia
    rtibia rfoot
    rfoot rtoes
    lowerback upperback
    upperback thorax
    thorax lowerneck lclavicle rclavicle
    lowerneck upperneck
    upperneck head
    lclavicle lhumerus
    lhumerus lradius
    lradius lwrist
    lwrist lhand lthumb
    lhand lfingers
    rclavicle rhumerus
    rhumerus rradius
    rradius rwrist
    rwrist rhand rthumb
    rhand rfingers
  end

#!OML:ASF H:\Terrain\Patient Classification 1\Animal1\Tuesday\Animal1.ASF
:FULLY-SPECIFIED
:DEGREES
234
root 20.954 13.4826 -13.0625 28.6018 -24.5695 3.71567
lowerback 40.662 -2.22048 -0.201079
upperback -3.3882 -2.83652 0.711916
thorax -25.0303 -0.918768 2.55646
lowerneck -1.69904 7.87246 0.139827
upperneck -39.6328 10.3093 -3.56462
head -12.8013 4.82576 -2.34943
rclavicle -2.26615e-014 -1.36167e-014
rhumerus -25.1381 15.7608 13.835
rradius 23.3793
rwrist -38.2999
rhand 4.83581 -8.42841
rfingers 7.12502
rthumb 30.2134 -35.9768
lclavicle -2.26615e-014 -1.36167e-014
lhumerus -12.4358 -2.82692 -7.92803
lradius 22.9732
lwrist -13.8374
lhand 37.4537 65.046
lfingers 7.12502
lthumb 60.253 78.5579
rfemur -111.506 -14.9043 24.0724
rtibia 86.4891
rfoot 41.3912 14.7733
rtoes 2.96547
lfemur -77.9651 -13.8869 -22.8247
ltibia 79.8091
lfoot -26.517 23.7854
ltoes 7.75511
235
root 20.9582 13.4766 -13.0649 28.6891 -24.5124 3.51052
lowerback 40.5708 -2.25998 -0.0219552
upperback -3.36368 -2.79046 0.742196
thorax -24.9636 -0.925727 2.46572
lowerneck -1.7755 7.93078 0.0650139
upperneck -39.6042 10.4209 -3.47676
head -12.7836 4.87821 -2.30812
rclavicle 3.01159e-014 1.00883e-014
rhumerus -24.3514 14.8284 14.2581
rradius 23.2593
rwrist -36.914
rhand 6.15481 -8.89788
rfingers 7.12502
rthumb 31.4708 -36.2085
lclavicle 3.01159e-014 1.00883e-014
lhumerus -11.6801 -3.43341 -7.94421
lradius 22.9646
lwrist -14.1959
lhand 38.8935 65.166
lfingers 7.12502
lthumb 61.4718 77.3025
rfemur -111.48 -14.8466 24.1518
rtibia 86.545
rfoot 41.7968 13.2294
rtoes 6.12461
lfemur -78.0787 -13.8416 -22.6099
ltibia 79.9802
lfoot -26.8573 23.5061
ltoes 9.05153
236
root 20.9581 13.4689 -13.0703 28.7148 -24.4118 3.25827
lowerback 40.6433 -2.29481 0.150539
upperback -3.34569 -2.7308 0.810741
thorax -24.9745 -0.920235 2.42217
lowerneck -1.7649 7.94689 0.0426237
upperneck -39.725 10.4725 -3.40096
head -12.8479 4.89033 -2.28685
rclavicle -2.9122e-014 -2.79044e-014
rhumerus -23.4921 14.5841 14.737
rradius 23.3932
rwrist -36.144
rhand 7.55629 -9.71922
rfingers 7.12502
rthumb 32.805 -36.7604
lclavicle -2.9122e-014 -2.79044e-014
lhumerus -10.8179 -3.71223 -7.97316
lradius 23.0915
lwrist -13.8954
lhand 39.4568 65.6074
lfingers 7.12502
lthumb 61.9434 77.1716
rfemur -111.368 -14.7649 24.2978
rtibia 86.6205
rfoot 42.0794 11.6394
rtoes 8.81928
lfemur -78.1307 -13.7797 -22.3385
ltibia 80.1448
lfoot -27.0437 23.3099
ltoes 9.61617
237
root 20.9567 13.4596 -13.0714 28.5524 -24.4404 3.44226
lowerback 40.6174 -2.28967 -0.00656545
upperback -3.27333 -2.81371 0.767337
thorax -24.851 -0.937039 2.4973
lowerneck -1.85208 7.96982 0.0889017
upperneck -39.8253 10.5109 -3.40188
head -12.8727 4.89728 -2.29781
rclavicle -6.58723e-014 -4.09993e-014
rhumerus -22.7159 15.8673 14.9415
rradius 23.693
rwrist -37.2357
rhand 8.1506 -10.2493
rfingers 7.12502
rthumb 33.3702 -37.1707
lclavicle -6.58723e-014 -4.09993e-014
lhumerus -9.86674 -2.59178 -7.99269
lradius 23.2022
lwrist -14.3611
lhand 39.9713 66.8858
lfingers 7.12502
lthumb 62.3714 77.9094
rfemur -111.407 -14.8388 24.0498
rtibia 86.7719
rfoot 42.3153 10.6716
rtoes 10.3844
lfemur -78.0618 -13.8295 -22.5566
ltibia 80.2406
lfoot -26.9656 23.471
ltoes 8.88961
238
root 20.9555 13.4455 -13.0682 28.3529 -24.5237 3.73674
lowerback 40.5193 -2.27725 -0.220488
upperback -3.18846 -2.92912 0.670272
thorax -24.6778 -0.965423 2.55424
lowerneck -2.03668 7.99898 0.0988637
upperneck -39.7465 10.5675 -3.35005
head -12.8029 4.91903 -2.26983
rclavicle -4.72114e-015 -2.1916e-014
rhumerus -21.8647 16.9967 15.0923
rradius 23.8157
rwrist -38.1795
rhand 8.37883 -10.5365
rfingers 7.12502
rthumb 33.5871 -37.411
lclavicle -4.72114e-015 -2.1916e-014
lhumerus -8.82528 -0.737658 -7.91141
lradius 23.2686
lwrist -15.5356
lhand 40.5402 68.1763
lfingers 7.12502
lthumb 62.8415 78.5815
rfemur -111.538 -14.9529 23.7616
rtibia 86.9491
rfoot 42.2101 11.3687
rtoes 8.88612
lfemur -77.9769 -13.9483 -22.8864
ltibia 80.3328
lfoot -26.8133 23.8167
ltoes 8.06012
239
root 20.9566 13.428 -13.0669 28.1738 -24.6069 3.84765
lowerback 40.5454 -2.25949 -0.311069
upperback -3.13485 -2.96775 0.603124
thorax -24.6098 -0.976223 2.54296
lowerneck -2.1766 7.99981 0.0156741
upperneck -39.6069 10.6257 -3.14407
head -12.734 4.93768 -2.16823
rclavicle -2.21645e-014 1.19768e-014
rhumerus -20.8244 16.1875 15.6375
rradius 23.8226
rwrist -37.2732
rhand 9.17793 -11.1987
rfingers 7.12502
rthumb 34.3462 -37.9049
lclavicle -2.21645e-014 1.19768e-014
lhumerus -7.75675 0.328272 -7.72941
lradius 23.3613
lwrist -16.0304
lhand 40.2175 68.5739
lfingers 7.12502
lthumb 62.5752 79.3327
rfemur -111.548 -14.9351 23.6368
rtibia 87.0669
rfoot 41.7418 13.3749
rtoes 4.80244
lfemur -77.916 -14.0058 -23.0474
ltibia 80.4745
lfoot -26.7669 23.9987
ltoes 7.77088
240
root 20.9592 13.4149 -13.0678 27.9705 -24.7048 3.97897
lowerback 40.6243 -2.22134 -0.454069
upperback -3.09689 -3.00392 0.54489
thorax -24.5838 -0.976934 2.57176
lowerneck -2.26253 8.00106 -0.0757458
upperneck -39.5269 10.6923 -2.92153
head -12.7049 4.95661 -2.0661
rclavicle 2.9768e-014 1.69464e-014
rhumerus -19.8262 14.3898 16.2557
rradius 23.8038
rwrist -35.776
rhand 10.3575 -11.4619
rfingers 7.12502
rthumb 35.4654 -37.908
lclavicle 2.9768e-014 1.69464e-014
lhumerus -6.72165 0.910834 -7.51616
lradius 23.5576
lwrist -16.1798
lhand 39.1443 68.824
lfingers 7.12502
lthumb 61.6821 80.7082
rfemur -111.513 -14.9177 23.4444
rtibia 87.1635
rfoot 41.6287 13.9818
rtoes 3.81072
lfemur -77.8309 -14.006 -23.2503
ltibia 80.6189
lfoot -27.1707 23.676
ltoes 9.23655
241
root 20.9601 13.4046 -13.0708 27.8752 -24.7245 4.00604
lowerback 40.6311 -2.21021 -0.505919
upperback -3.06051 -3.02033 0.523437
thorax -24.5324 -0.979934 2.58179
lowerneck -2.30602 7.96798 -0.19451
upperneck -39.4957 10.7268 -2.63843
head -12.7138 4.955 -1.93861
rclavicle 1.44119e-015 2.10215e-014
rhumerus -18.9719 13.7748 16.5626
rradius 23.8475
rwrist -35.6176
rhand 11.2609 -11.2533
rfingers 7.12502
rthumb 36.3213 -37.4903
lclavicle 1.44119e-015 2.10215e-014
lhumerus -5.61586 2.07264 -7.24709
lradius 23.877
lwrist -17.2875
lhand 38.7919 69.6663
lfingers 7.12502
lthumb 61.3863 81.9038
rfemur -111.549 -14.9319 23.4428
rtibia 87.2718
rfoot 41.775 13.4041
rtoes 5.10161
lfemur -77.8078 -13.9714 -23.3037
ltibia 80.7567
lfoot -27.6692 23.2394
ltoes 10.8354
242
root 20.963 13.3956 -13.0747 27.8414 -24.6057 3.80126
lowerback 40.6445 -2.27588 -0.293218
upperback -3.00903 -2.99023 0.556734
thorax -24.4738 -0.995599 2.48758
lowerneck -2.30243 7.8618 -0.250312
upperneck -39.5072 10.6637 -2.33043
head -12.7496 4.89383 -1.80724
rclavicle 8.60738e-014 -9.43233e-014
rhumerus -18.0875 13.8474 16.8398
rradius 23.9777
rwrist -36.1022
rhand 11.6105 -11.8013
rfingers 7.12502
rthumb 36.6522 -37.9549
lclavicle 8.60738e-014 -9.43233e-014
lhumerus -4.49369 3.16924 -6.99896
lradius 24.2473
lwrist -19.0076
lhand 39.6459 70.4989
lfingers 7.12502
lthumb 62.101 81.8664
rfemur -111.508 -14.9614 23.7206
rtibia 87.3783
rfoot 41.8878 12.6013
rtoes 6.5882
lfemur -77.797 -13.9406 -23.1075
ltibia 80.9183
lfoot -27.7818 23.1656
ltoes 10.7349
243
root 20.9679 13.3881 -13.0821 27.8008 -24.5314 3.64928
lowerback 40.6348 -2.32062 -0.139114
upperback -2.97818 -2.97081 0.558267
thorax -24.4335 -1.00983 2.39357
lowerneck -2.1857 7.74664 -0.158021
upperneck -39.5867 10.5834 -2.08688
head -12.8227 4.80775 -1.73155
rclavicle -1.01877e-014 -1.42628e-014
rhumerus -17.1458 12.5078 17.189
rradius 23.9562
rwrist -35.1314
rhand 12.309 -12.6426
rfingers 7.12502
rthumb 37.3129 -38.6256
lclavicle -1.01877e-014 -1.42628e-014
lhumerus -3.21618 4.00563 -6.80321
lradius 24.2929
lwrist -21.0418
lhand 41.0606 70.8434
lfingers 7.12502
lthumb 63.2683 80.6631
rfemur -111.486 -14.9495 23.9129
rtibia 87.4604
rfoot 41.8603 12.5862
rtoes 6.53416
lfemur -77.8487 -13.9176 -22.9714
ltibia 81.0794
lfoot -27.641 23.2986
ltoes 10.0363
